<svg xmlns="http://www.w3.org/2000/svg" width="225" height="225" viewBox="0 0 225 225" version="1.1"><path d="M 114.450 77.407 C 108.041 80.199, 101.317 91.596, 100.431 101.173 C 99.938 106.500, 99.938 106.500, 101.972 100.359 C 104.300 93.328, 109.234 85.573, 113.254 82.624 C 116.541 80.212, 121.750 80.135, 125.276 82.445 C 129.212 85.024, 133.216 91.554, 136.280 100.392 C 139.091 108.500, 139.091 108.500, 138.431 103 C 137.047 91.463, 131.196 80.903, 124.504 77.863 C 119.758 75.707, 118.485 75.649, 114.450 77.407 M 52.707 101.533 C 41.304 105.718, 31.698 116.678, 33.420 123.538 C 34.474 127.736, 41.131 127.726, 45.337 123.520 C 46.820 122.037, 46.836 121.584, 45.493 118.986 C 44.672 117.398, 44 115.436, 44 114.626 C 44 111.189, 52.374 104, 56.379 104 C 58.855 104, 61.130 107, 60.440 109.355 C 58.578 115.718, 45.151 131.724, 37.332 136.903 C 31.708 140.629, 26.630 141.045, 24.956 137.917 C 23.884 135.915, 23.788 135.906, 22.452 137.667 C 18.259 143.201, 23.700 150.623, 30.118 148.123 C 31.428 147.613, 35.948 144.227, 40.163 140.598 C 47.792 134.029, 47.853 134, 53.913 134 C 60 134, 60 134, 60 137.599 C 60 142.204, 62.620 147.745, 65.183 148.558 C 70.700 150.309, 80.795 144.164, 84.651 136.709 C 86.730 132.688, 85.537 132.111, 82.049 135.453 C 76.864 140.421, 76.097 138.889, 76.221 123.803 C 76.341 109.261, 75.493 106.106, 70.385 102.088 C 67.218 99.597, 58.710 99.330, 52.707 101.533 M 195.500 113.307 C 189.409 114.564, 189.214 114.703, 191.331 116.260 C 192.881 117.401, 192.679 118.479, 188.790 129.793 C 184.432 142.475, 184.356 145.036, 188.318 145.816 C 191.071 146.358, 196.878 142.933, 198.984 139.526 C 201.741 135.065, 201.460 133.849, 198.508 137.461 C 197.177 139.089, 195.784 140.117, 195.412 139.745 C 195.040 139.373, 196.820 133.165, 199.368 125.949 C 201.915 118.733, 204 112.643, 204 112.415 C 204 111.828, 201.288 112.113, 195.500 113.307 M 116.245 114.155 C 113.737 116.663, 115.512 121, 119.045 121 C 121.323 121, 124.248 117.530, 123.829 115.324 C 123.411 113.119, 118.100 112.300, 116.245 114.155 M 57 121.044 C 48.033 131.914, 48.270 131, 54.416 131 C 60 131, 60 131, 59.882 127.750 C 59.817 125.963, 59.479 123.313, 59.132 121.863 C 58.533 119.364, 58.422 119.321, 57 121.044 M 89.535 126.104 C 87.591 127.811, 86 129.680, 86 130.259 C 86 130.837, 86.903 130.493, 88.006 129.494 C 91.162 126.639, 91.411 128.357, 88.868 135.448 C 87.060 140.489, 86.769 142.412, 87.610 143.754 C 90.664 148.627, 99.668 144.245, 105.959 134.824 C 110.908 127.412, 111.128 123.686, 106.646 123.174 C 103.791 122.847, 103.791 122.847, 104.485 127.893 C 105.080 132.216, 104.849 133.409, 102.876 136.220 C 97.136 144.396, 95.039 142.930, 98.617 133.241 C 100.066 129.314, 100.985 125.403, 100.658 124.550 C 99.590 121.767, 93.506 122.617, 89.535 126.104 M 113.179 124.285 C 111.484 126.326, 107 139.476, 107 142.402 C 107 147.563, 113.383 146.994, 118.696 141.360 C 120.513 139.434, 121.990 137.102, 121.978 136.179 C 121.961 134.880, 121.523 135.063, 120.046 136.985 C 116.959 141.003, 116.610 138.609, 119.306 131.902 C 120.683 128.474, 121.580 125.069, 121.298 124.335 C 120.643 122.629, 114.584 122.591, 113.179 124.285 M 129.458 124.880 C 127.235 125.890, 124.637 127.905, 123.685 129.358 C 121.726 132.347, 122.440 132.817, 125.177 130.339 C 126.187 129.426, 127.222 128.888, 127.478 129.145 C 127.734 129.401, 126.608 133.185, 124.975 137.555 C 123.343 141.925, 122.006 145.613, 122.004 145.750 C 122.002 145.887, 123.978 146, 126.397 146 C 130.793 146, 130.793 146, 134.647 138.326 C 140.251 127.166, 145.257 124.648, 140.513 135.375 C 137.467 142.262, 137.289 145.639, 139.927 146.477 C 142.723 147.364, 148.179 144.765, 151.297 141.059 C 154.945 136.723, 154.736 134.921, 151 138.500 C 147.328 142.018, 147.231 140.922, 150.570 133.628 C 152.081 130.328, 152.884 127.209, 152.519 126.059 C 151.147 121.738, 144.934 122.775, 139.232 128.275 C 135.965 131.427, 135.965 131.427, 136.628 128.112 C 137.093 125.784, 136.875 124.535, 135.895 123.914 C 134.072 122.760, 134.152 122.748, 129.458 124.880 M 166.292 124.320 C 160.616 127.320, 155 135.497, 155 140.760 C 155 146.938, 160.088 147.723, 165.930 142.445 C 169.865 138.889, 169.865 138.889, 170.183 142.195 C 170.479 145.281, 170.731 145.489, 173.983 145.327 C 176.643 145.195, 178.356 144.200, 181.233 141.116 C 183.305 138.895, 184.984 136.498, 184.964 135.789 C 184.944 135.080, 183.906 135.749, 182.656 137.275 C 181.407 138.802, 180.112 139.779, 179.779 139.446 C 179.446 139.113, 180.259 135.647, 181.587 131.745 C 182.914 127.843, 184 124.286, 184 123.842 C 184 122.731, 168.509 123.149, 166.292 124.320 M 170.752 127.750 C 168.508 130.269, 164.653 137.986, 165.310 138.643 C 166.284 139.617, 168.111 137.894, 171.098 133.185 C 173.999 128.610, 174.746 126, 173.155 126 C 172.690 126, 171.609 126.787, 170.752 127.750" stroke="none" fill="#e4192b" fill-rule="evenodd"/><path d="M -0 112.504 C -0 225.009, 0 225.009, 112.750 224.754 C 225.500 224.500, 225.500 224.500, 225.754 112.250 C 226.009 0, 226.009 0, 113.004 0 C 0 0, 0 0, -0 112.504 M 0.483 113 C 0.483 174.875, 0.603 200.188, 0.750 169.250 C 0.897 138.313, 0.897 87.688, 0.750 56.750 C 0.603 25.813, 0.483 51.125, 0.483 113 M 114.450 77.407 C 108.041 80.199, 101.317 91.596, 100.431 101.173 C 99.938 106.500, 99.938 106.500, 101.972 100.359 C 104.300 93.328, 109.234 85.573, 113.254 82.624 C 116.541 80.212, 121.750 80.135, 125.276 82.445 C 129.212 85.024, 133.216 91.554, 136.280 100.392 C 139.091 108.500, 139.091 108.500, 138.431 103 C 137.047 91.463, 131.196 80.903, 124.504 77.863 C 119.758 75.707, 118.485 75.649, 114.450 77.407 M 52.707 101.533 C 41.304 105.718, 31.698 116.678, 33.420 123.538 C 34.474 127.736, 41.131 127.726, 45.337 123.520 C 46.820 122.037, 46.836 121.584, 45.493 118.986 C 44.672 117.398, 44 115.436, 44 114.626 C 44 111.189, 52.374 104, 56.379 104 C 58.855 104, 61.130 107, 60.440 109.355 C 58.578 115.718, 45.151 131.724, 37.332 136.903 C 31.708 140.629, 26.630 141.045, 24.956 137.917 C 23.884 135.915, 23.788 135.906, 22.452 137.667 C 18.259 143.201, 23.700 150.623, 30.118 148.123 C 31.428 147.613, 35.948 144.227, 40.163 140.598 C 47.792 134.029, 47.853 134, 53.913 134 C 60 134, 60 134, 60 137.599 C 60 142.204, 62.620 147.745, 65.183 148.558 C 70.700 150.309, 80.795 144.164, 84.651 136.709 C 86.730 132.688, 85.537 132.111, 82.049 135.453 C 76.864 140.421, 76.097 138.889, 76.221 123.803 C 76.341 109.261, 75.493 106.106, 70.385 102.088 C 67.218 99.597, 58.710 99.330, 52.707 101.533 M 195.500 113.307 C 189.409 114.564, 189.214 114.703, 191.331 116.260 C 192.881 117.401, 192.679 118.479, 188.790 129.793 C 184.432 142.475, 184.356 145.036, 188.318 145.816 C 191.071 146.358, 196.878 142.933, 198.984 139.526 C 201.741 135.065, 201.460 133.849, 198.508 137.461 C 197.177 139.089, 195.784 140.117, 195.412 139.745 C 195.040 139.373, 196.820 133.165, 199.368 125.949 C 201.915 118.733, 204 112.643, 204 112.415 C 204 111.828, 201.288 112.113, 195.500 113.307 M 116.245 114.155 C 113.737 116.663, 115.512 121, 119.045 121 C 121.323 121, 124.248 117.530, 123.829 115.324 C 123.411 113.119, 118.100 112.300, 116.245 114.155 M 57 121.044 C 48.033 131.914, 48.270 131, 54.416 131 C 60 131, 60 131, 59.882 127.750 C 59.817 125.963, 59.479 123.313, 59.132 121.863 C 58.533 119.364, 58.422 119.321, 57 121.044 M 89.535 126.104 C 87.591 127.811, 86 129.680, 86 130.259 C 86 130.837, 86.903 130.493, 88.006 129.494 C 91.162 126.639, 91.411 128.357, 88.868 135.448 C 87.060 140.489, 86.769 142.412, 87.610 143.754 C 90.664 148.627, 99.668 144.245, 105.959 134.824 C 110.908 127.412, 111.128 123.686, 106.646 123.174 C 103.791 122.847, 103.791 122.847, 104.485 127.893 C 105.080 132.216, 104.849 133.409, 102.876 136.220 C 97.136 144.396, 95.039 142.930, 98.617 133.241 C 100.066 129.314, 100.985 125.403, 100.658 124.550 C 99.590 121.767, 93.506 122.617, 89.535 126.104 M 113.179 124.285 C 111.484 126.326, 107 139.476, 107 142.402 C 107 147.563, 113.383 146.994, 118.696 141.360 C 120.513 139.434, 121.990 137.102, 121.978 136.179 C 121.961 134.880, 121.523 135.063, 120.046 136.985 C 116.959 141.003, 116.610 138.609, 119.306 131.902 C 120.683 128.474, 121.580 125.069, 121.298 124.335 C 120.643 122.629, 114.584 122.591, 113.179 124.285 M 129.458 124.880 C 127.235 125.890, 124.637 127.905, 123.685 129.358 C 121.726 132.347, 122.440 132.817, 125.177 130.339 C 126.187 129.426, 127.222 128.888, 127.478 129.145 C 127.734 129.401, 126.608 133.185, 124.975 137.555 C 123.343 141.925, 122.006 145.613, 122.004 145.750 C 122.002 145.887, 123.978 146, 126.397 146 C 130.793 146, 130.793 146, 134.647 138.326 C 140.251 127.166, 145.257 124.648, 140.513 135.375 C 137.467 142.262, 137.289 145.639, 139.927 146.477 C 142.723 147.364, 148.179 144.765, 151.297 141.059 C 154.945 136.723, 154.736 134.921, 151 138.500 C 147.328 142.018, 147.231 140.922, 150.570 133.628 C 152.081 130.328, 152.884 127.209, 152.519 126.059 C 151.147 121.738, 144.934 122.775, 139.232 128.275 C 135.965 131.427, 135.965 131.427, 136.628 128.112 C 137.093 125.784, 136.875 124.535, 135.895 123.914 C 134.072 122.760, 134.152 122.748, 129.458 124.880 M 166.292 124.320 C 160.616 127.320, 155 135.497, 155 140.760 C 155 146.938, 160.088 147.723, 165.930 142.445 C 169.865 138.889, 169.865 138.889, 170.183 142.195 C 170.479 145.281, 170.731 145.489, 173.983 145.327 C 176.643 145.195, 178.356 144.200, 181.233 141.116 C 183.305 138.895, 184.984 136.498, 184.964 135.789 C 184.944 135.080, 183.906 135.749, 182.656 137.275 C 181.407 138.802, 180.112 139.779, 179.779 139.446 C 179.446 139.113, 180.259 135.647, 181.587 131.745 C 182.914 127.843, 184 124.286, 184 123.842 C 184 122.731, 168.509 123.149, 166.292 124.320 M 170.752 127.750 C 168.508 130.269, 164.653 137.986, 165.310 138.643 C 166.284 139.617, 168.111 137.894, 171.098 133.185 C 173.999 128.610, 174.746 126, 173.155 126 C 172.690 126, 171.609 126.787, 170.752 127.750" stroke="none" fill="#fbd304" fill-rule="evenodd"/></svg>