<svg xmlns="http://www.w3.org/2000/svg" width="512" height="512" viewBox="0 0 512 512" version="1.1"><path d="M 326.989 168.250 C 320.797 178.406, 329.908 192.598, 337.418 184.494 C 340.164 181.531, 341.225 176.273, 339.965 171.878 C 338.624 167.204, 336.178 165, 332.330 165 C 329.613 165, 328.592 165.621, 326.989 168.250 M 345.831 172.035 C 341.566 174.524, 339.700 187.524, 343.033 191.539 C 344.886 193.773, 348.633 193.281, 350.806 190.519 L 352.758 188.038 353.354 191.019 C 353.682 192.659, 354.375 194, 354.895 194 C 356.047 194, 357.307 183.019, 356.790 177.500 C 356.428 173.649, 356.373 173.593, 355.307 176 C 354.257 178.373, 354.162 178.398, 353.448 176.500 C 352.435 173.805, 349.939 170.993, 348.595 171.030 C 347.993 171.047, 346.749 171.499, 345.831 172.035 M 259.418 173.969 C 258.274 174.432, 256.136 176.238, 254.668 177.982 C 250.969 182.378, 250.908 189.549, 254.533 193.857 C 262.284 203.068, 277.039 197.774, 276.985 185.800 C 276.946 176.956, 267.598 170.660, 259.418 173.969 M 228.388 181.948 C 222.222 184.534, 219.973 194.163, 223.995 200.759 C 230.947 212.161, 247 209.436, 247 196.854 C 247 187.524, 236.034 178.741, 228.388 181.948 M 306.923 185.923 C 302.630 190.217, 302.816 195.737, 307.423 200.765 C 310.439 204.055, 311.402 204.500, 315.510 204.500 C 319.379 204.500, 320.584 204.022, 322.587 201.694 C 331.181 191.703, 316.213 176.633, 306.923 185.923 M 328.809 196.750 C 325.241 200.576, 324 203.304, 324 207.323 C 324 218.652, 337.940 217.366, 341.068 205.748 C 343.666 196.100, 335.207 189.891, 328.809 196.750 M 282.020 196.752 C 276.977 199.285, 273.706 204.569, 274.312 209.203 C 275.416 217.638, 282.890 222.548, 290.950 220.133 C 296.409 218.497, 299.522 213.951, 299.427 207.753 C 299.344 202.355, 296.720 198.688, 291.282 196.371 C 287.138 194.605, 286.216 194.643, 282.020 196.752 M 347.114 198.633 C 342.773 201.673, 339.726 211.516, 341.607 216.418 C 342.651 219.138, 346.838 218.314, 348.859 214.992 C 351.368 210.865, 354.405 200.497, 353.667 198.575 C 352.887 196.541, 350.065 196.566, 347.114 198.633 M 249.826 205.712 C 246.580 207.726, 245 210.944, 245 215.544 C 245 220.257, 250.700 226.573, 256.318 228.086 C 267.692 231.148, 275.966 221.017, 270.035 211.290 C 266.186 204.977, 255.684 202.078, 249.826 205.712 M 217.455 213.455 C 210.491 220.418, 219.573 234, 231.193 234 C 236.922 234, 241 230.859, 241 226.447 C 241 215.402, 224.572 206.337, 217.455 213.455 M 305.400 215.400 C 302.509 218.291, 302 219.495, 302 223.448 C 302 231.409, 308.670 235.290, 315.915 231.544 C 322.213 228.287, 323.605 218.194, 318.328 214.043 C 314.260 210.843, 309.452 211.348, 305.400 215.400 M 193.557 217.223 C 190.440 221.672, 192.442 228.546, 198.369 233.751 C 203.064 237.873, 206.291 238.695, 209.507 236.587 C 211.481 235.294, 212 234.116, 212 230.927 C 212 225.895, 210.121 222.191, 205.516 218.148 C 201.060 214.236, 195.927 213.838, 193.557 217.223 M 327.985 222.250 C 321.992 226.323, 318.619 236.426, 321.922 240.407 C 323.483 242.287, 328.815 242.458, 331.122 240.702 C 337.252 236.035, 340.117 225.226, 336.171 221.655 C 333.722 219.438, 331.930 219.569, 327.985 222.250 M 275.756 226.755 C 274.246 227.691, 272.321 229.912, 271.477 231.691 C 270.133 234.522, 270.119 235.349, 271.365 238.332 C 274.992 247.011, 287.123 248.397, 293.467 240.857 C 297.078 236.565, 296.802 232.602, 292.600 228.400 C 289.570 225.370, 288.618 225.003, 283.850 225.027 C 280.596 225.043, 277.425 225.720, 275.756 226.755 M 246.295 233.097 C 239.870 234.975, 238.113 241.603, 242.619 246.959 C 246.095 251.090, 250.010 253, 255 253 C 264.593 253, 268.681 246.909, 264.114 239.420 C 261.038 234.376, 252.403 231.311, 246.295 233.097 M 215 238.288 C 211.519 240.040, 211.084 245.566, 214.123 249.429 C 216.806 252.840, 223.294 255.948, 227.795 255.978 C 231.254 256.001, 236 252.366, 236 249.693 C 236 246.847, 231.349 241.432, 227.030 239.250 C 222.012 236.715, 218.658 236.447, 215 238.288 M 192.993 239.508 C 189.399 243.839, 196.454 255, 202.785 255 C 206.509 255, 208 253.337, 208 249.182 C 208 242.091, 196.827 234.889, 192.993 239.508 M 178.888 240.750 C 180.359 243.437, 188.881 251.452, 189.553 250.781 C 190.549 249.784, 187.259 244.396, 183.959 241.619 C 180.293 238.534, 177.403 238.039, 178.888 240.750 M 300.059 241.185 C 291.246 245.778, 289.530 252.652, 296.473 255.553 C 304.107 258.743, 316 252.581, 316 245.435 C 316 241.433, 314.155 239.874, 308.749 239.313 C 305.620 238.987, 303.329 239.481, 300.059 241.185 M 322.500 245.569 C 316.944 248.453, 309.709 257.042, 311.406 258.739 C 312.581 259.914, 329 247.013, 329 244.915 C 329 243.517, 325.843 243.835, 322.500 245.569 M 271.500 250.503 C 267.357 251.969, 263 256.072, 263 258.509 C 263 263.375, 268.646 268, 274.585 268 C 278.689 268, 285.523 264.343, 286.846 261.438 C 289.184 256.307, 287.617 252.991, 281.680 250.511 C 277.326 248.692, 276.621 248.691, 271.500 250.503 M 194.032 254.750 C 194.075 255.749, 203.294 262.040, 203.870 261.463 C 204.585 260.748, 200.766 256.930, 197.802 255.398 C 194.732 253.810, 193.986 253.682, 194.032 254.750 M 209.523 256.974 C 206.845 259.934, 209.006 264.340, 214.421 266.962 C 220.850 270.074, 227.168 269.197, 228.497 265.008 C 230.688 258.107, 214.646 251.314, 209.523 256.974 M 234.306 257.442 C 231.624 259.776, 231.566 260.007, 233.009 262.692 C 237.182 270.456, 256.346 272.787, 258.564 265.799 C 261.028 258.037, 241.395 251.272, 234.306 257.442 M 292.276 261.654 C 287.451 263.362, 281.618 268.352, 282.244 270.234 C 282.992 272.479, 285.701 272.186, 293.683 269 C 304.233 264.788, 306.477 263.280, 304.944 261.433 C 303.437 259.616, 297.750 259.715, 292.276 261.654 M 258.272 269.850 C 255.227 270.739, 251.782 273.838, 252.516 275.027 C 253.169 276.082, 267.674 276.159, 272.418 275.132 C 276.430 274.263, 276.711 272.419, 273.113 270.559 C 270.092 268.996, 262.447 268.631, 258.272 269.850 M 226.529 270.953 C 225.920 271.939, 229.286 273.006, 239.329 275.011 C 245.520 276.247, 247.293 275.804, 244.940 273.608 C 241.629 270.516, 228.012 268.553, 226.529 270.953 M 61.500 302.662 C 58.173 304.415, 54 307.967, 54 309.044 C 54 309.426, 56.674 310.898, 59.942 312.316 C 64.087 314.113, 66.900 314.728, 69.239 314.349 C 75.099 313.398, 75.500 314.784, 75.500 336 C 75.500 356.400, 75.100 358, 69.999 358 C 66.078 358, 65.058 354.693, 64.755 341 L 64.500 329.500 67.250 329.688 C 68.763 329.792, 70 329.694, 70 329.471 C 70 328.756, 59.817 313, 59.355 313 C 58.284 313, 44 323.145, 44 323.905 C 44 324.370, 45.301 325.010, 46.892 325.328 L 49.784 325.907 50.181 341.203 C 50.501 353.532, 50.932 357.179, 52.406 360 C 56.662 368.149, 61.761 371.346, 70.500 371.346 C 77.318 371.346, 81.502 369.569, 85.295 365.061 C 89.805 359.701, 90.500 355.888, 90.500 336.500 C 90.500 317.610, 89.780 313.339, 85.652 307.747 C 81.152 301.652, 68.478 298.983, 61.500 302.662 M 116.500 317.710 C 115.400 317.983, 113.713 318.905, 112.750 319.758 C 111.163 321.165, 111 321.156, 111 319.655 C 111 318.285, 109.882 318, 104.500 318 L 98 318 98 353.046 L 98 388.091 104.750 387.796 L 111.500 387.500 111.789 378.160 C 112.043 369.949, 112.261 368.971, 113.592 370.076 C 115.803 371.911, 123.398 371.624, 126.505 369.589 C 131.476 366.332, 132.469 362.156, 132.469 344.500 C 132.469 327.105, 131.446 322.601, 126.834 319.676 C 124.069 317.923, 119.297 317.015, 116.500 317.710 M 150.479 317.892 C 145.597 319.123, 142.412 321.760, 140.392 326.244 C 137.636 332.363, 137.611 357.713, 140.356 363.234 C 143.134 368.822, 148.155 371.511, 155.653 371.426 C 165.443 371.316, 170.281 367.233, 172.452 357.250 L 173.159 354 166.317 354 C 160.186 354, 159.372 354.233, 158.487 356.244 C 157.333 358.868, 154.115 359.789, 152.885 357.848 C 152.415 357.107, 152.024 354.813, 152.015 352.750 L 152 349 162.500 349 L 173 349 173 343.136 C 173 326.711, 168.318 318.747, 158 317.621 C 155.525 317.351, 152.141 317.473, 150.479 317.892 M 196.357 318.412 C 194.346 319.309, 192.867 319.467, 192.253 318.853 C 191.724 318.324, 188.638 318.028, 185.396 318.196 L 179.500 318.500 179.500 344.500 L 179.500 370.500 186.229 370.795 L 192.957 371.090 193.229 351.403 C 193.461 334.566, 193.734 331.569, 195.114 330.699 C 196.002 330.139, 197.464 329.964, 198.364 330.309 C 199.803 330.862, 200 333.346, 200 350.969 L 200 371 207 371 L 214 371 214 349.468 C 214 326.281, 213.356 322.566, 208.834 319.652 C 205.276 317.359, 199.914 316.827, 196.357 318.412 M 112.464 331.233 C 112.174 331.988, 112.064 338.432, 112.219 345.553 C 112.492 358.117, 112.566 358.509, 114.748 358.819 C 116.410 359.055, 117.258 358.451, 117.998 356.504 C 119.111 353.577, 119.190 336.908, 118.109 333 C 117.342 330.224, 113.333 328.969, 112.464 331.233 M 153.200 331.200 C 152.540 331.860, 152 333.885, 152 335.700 C 152 338.805, 152.207 339, 155.500 339 C 158.793 339, 159 338.805, 159 335.700 C 159 332.379, 157.539 330, 155.500 330 C 154.895 330, 153.860 330.540, 153.200 331.200 M 56.441 397.419 C 54.740 398.663, 54.500 400.096, 54.500 409 C 54.500 417.904, 54.740 419.337, 56.441 420.581 C 60.593 423.616, 67 421.005, 67 416.277 C 67 414.238, 63.605 414.801, 62.185 417.076 C 61.143 418.744, 60.604 418.916, 59.444 417.954 C 57.232 416.118, 57.402 401.167, 59.645 400.306 C 60.619 399.932, 61.785 400.353, 62.505 401.338 C 63.938 403.297, 67 403.559, 67 401.723 C 67 396.995, 60.593 394.384, 56.441 397.419 M 184.400 396.765 C 182.061 398.327, 181 402.144, 181 409 C 181 418.718, 182.793 421.954, 188.193 421.985 C 190.874 422, 194 418.928, 194 416.277 C 194 414.190, 190.590 414.826, 189.115 417.188 C 187.791 419.307, 187.705 419.317, 186.374 417.497 C 184.976 415.586, 184.447 404.604, 185.607 401.582 C 186.376 399.578, 188.881 399.527, 189.638 401.500 C 190.338 403.324, 194 403.511, 194 401.723 C 194 401.020, 193.299 399.445, 192.443 398.223 C 190.892 396.008, 186.677 395.245, 184.400 396.765 M 292 398 C 287.957 402.043, 289.956 408.683, 295.748 410.448 C 298.043 411.148, 299.712 415.038, 298.535 416.943 C 297.542 418.550, 294 418.204, 294 416.500 C 294 415.667, 293.111 415, 292 415 C 289.410 415, 289.356 418.108, 291.906 420.415 C 293.118 421.511, 295.021 422.024, 297.125 421.820 C 301.456 421.402, 303.573 417.866, 302.599 412.677 C 302.037 409.679, 301.196 408.638, 298.202 407.231 C 295.809 406.107, 294.387 404.696, 294.180 403.242 C 293.768 400.344, 296.801 399.008, 298.505 401.338 C 299.173 402.252, 300.489 403, 301.428 403 C 302.729 403, 302.976 402.466, 302.466 400.750 C 301.027 395.904, 295.538 394.462, 292 398 M 305 409 C 305 421.240, 305.114 422, 306.958 422 C 308.706 422, 308.947 421.179, 309.208 414.330 C 309.399 409.303, 309.931 406.518, 310.750 406.247 C 311.681 405.939, 312 407.896, 312 413.917 C 312 421.333, 312.165 422, 314 422 C 315.839 422, 316 421.333, 316 413.700 C 316 404.842, 315.191 403, 311.300 403 C 309.338 403, 309 402.486, 309 399.500 C 309 396.667, 308.619 396, 307 396 C 305.103 396, 305 396.667, 305 409 M 392 409 C 392 421.333, 392.103 422, 394 422 C 395.758 422, 396 421.333, 396 416.500 C 396 413.475, 396.427 411, 396.949 411 C 397.471 411, 398.678 413.475, 399.632 416.500 C 400.897 420.513, 401.857 422, 403.183 422 C 405.391 422, 405.411 421.563, 403.467 415.856 C 402.091 411.820, 402.091 411.055, 403.461 408.428 C 405.290 404.921, 405.393 402.614, 403.850 399.684 C 402.222 396.591, 401.066 396.033, 396.250 396.015 L 392 396 392 409 M 136 400.500 C 136 401.875, 135.550 403, 135 403 C 134.450 403, 134 403.675, 134 404.500 C 134 405.325, 134.450 406, 135 406 C 135.562 406, 136 408.782, 136 412.345 C 136 418.993, 137.659 422, 141.329 422 C 143.406 422, 143.541 419.145, 141.500 418.362 C 139.221 417.487, 139.420 407.147, 141.750 405.432 C 143.417 404.204, 143.417 404.111, 141.750 403.464 C 140.760 403.081, 140 401.747, 140 400.393 C 140 398.667, 139.443 398, 138 398 C 136.533 398, 136 398.667, 136 400.500 M 232 400.500 C 232 401.875, 231.550 403, 231 403 C 230.450 403, 230 403.675, 230 404.500 C 230 405.325, 230.450 406, 231 406 C 231.562 406, 232 408.782, 232 412.345 C 232 418.993, 233.659 422, 237.329 422 C 239.406 422, 239.541 419.145, 237.500 418.362 C 236.401 417.940, 236 416.209, 236 411.893 C 236 407.321, 236.336 406, 237.500 406 C 238.325 406, 239 405.325, 239 404.500 C 239 403.675, 238.325 403, 237.500 403 C 236.567 403, 236 402.056, 236 400.500 C 236 398.667, 235.467 398, 234 398 C 232.533 398, 232 398.667, 232 400.500 M 460 400.500 C 460 401.875, 459.550 403, 459 403 C 458.450 403, 458 403.675, 458 404.500 C 458 405.325, 458.450 406, 459 406 C 459.551 406, 460 408.592, 460 411.777 C 460 418.161, 461.899 422, 465.057 422 C 467.392 422, 467.748 418.501, 465.500 417.638 C 464.417 417.223, 464 415.526, 464 411.531 C 464 407.281, 464.347 406, 465.500 406 C 466.325 406, 467 405.325, 467 404.500 C 467 403.675, 466.325 403, 465.500 403 C 464.567 403, 464 402.056, 464 400.500 C 464 398.667, 463.467 398, 462 398 C 460.533 398, 460 398.667, 460 400.500 M 396 404 C 396 408.254, 397.671 409.306, 399.989 406.513 C 401.778 404.358, 400.434 400, 397.981 400 C 396.337 400, 396 400.679, 396 404 M 70.200 404.200 C 68.723 405.677, 68.601 417.386, 70.035 420.066 C 71.498 422.800, 76.445 422.630, 78.443 419.777 C 79.354 418.478, 80 415.457, 80 412.500 C 80 406.317, 77.955 403, 74.143 403 C 72.634 403, 70.860 403.540, 70.200 404.200 M 82 412.500 C 82 421.265, 82.151 422, 83.958 422 C 85.706 422, 85.947 421.179, 86.208 414.330 C 86.399 409.303, 86.931 406.518, 87.750 406.247 C 88.681 405.939, 89 407.896, 89 413.917 C 89 421.333, 89.165 422, 91 422 C 92.839 422, 93 421.333, 93 413.700 C 93 408.578, 92.541 404.941, 91.800 404.200 C 91.140 403.540, 88.665 403, 86.300 403 L 82 403 82 412.500 M 96 412.500 C 96 421.265, 96.151 422, 97.958 422 C 99.708 422, 99.947 421.178, 100.208 414.250 C 100.582 404.319, 102.403 404.490, 102.792 414.493 C 103.052 421.180, 103.298 422, 105.042 422 C 106.829 422, 107 421.274, 107 413.700 C 107 408.578, 106.541 404.941, 105.800 404.200 C 105.140 403.540, 102.665 403, 100.300 403 L 96 403 96 412.500 M 110.557 405.223 C 109.646 406.522, 109 409.543, 109 412.500 C 109 418.683, 111.045 422, 114.857 422 C 118.021 422, 120 420.384, 120 417.800 C 120 415.549, 117.412 415.441, 116.181 417.640 C 115.048 419.666, 113 418.572, 113 415.941 C 113 414.389, 113.702 414, 116.500 414 C 119.957 414, 120 413.948, 120 409.700 C 120 407.335, 119.460 404.860, 118.800 404.200 C 116.811 402.211, 112.272 402.774, 110.557 405.223 M 123.557 405.223 C 122.646 406.522, 122 409.543, 122 412.500 C 122 418.683, 124.045 422, 127.857 422 C 131.021 422, 133 420.384, 133 417.800 C 133 416.667, 132.259 416, 131 416 C 129.842 416, 129 416.667, 129 417.583 C 129 418.454, 128.438 418.981, 127.750 418.755 C 126.125 418.219, 125.504 408.092, 127.005 406.607 C 127.825 405.796, 128.388 405.968, 129.112 407.250 C 130.402 409.537, 133 409.504, 133 407.200 C 133 402.748, 126.276 401.340, 123.557 405.223 M 196 412.563 C 196 421.333, 196.141 422, 198 422 C 199.809 422, 200 421.333, 200 415.008 C 200 409.100, 200.310 407.823, 202 406.768 C 205.211 404.763, 204.362 403.241, 200 403.181 L 196 403.125 196 412.563 M 206.035 404.934 C 204.375 408.037, 204.740 418.597, 206.571 420.429 C 209.590 423.447, 216 421.407, 216 417.429 C 216 415.494, 212.365 415.606, 211.614 417.563 C 210.846 419.565, 209 418.465, 209 416.004 C 209 414.617, 209.849 414.045, 212.250 413.813 C 215.097 413.539, 215.538 413.103, 215.810 410.296 C 216.284 405.399, 214.538 403, 210.500 403 C 208.133 403, 206.750 403.599, 206.035 404.934 M 219.200 404.200 C 217.533 405.867, 217.696 409, 219.450 409 C 220.248 409, 221.314 408.262, 221.819 407.360 C 222.324 406.457, 223.246 406.034, 223.868 406.419 C 225.925 407.690, 225.047 409.618, 221.750 411.070 C 219.070 412.249, 218.447 413.129, 218.199 416.086 C 217.821 420.606, 219.656 422.228, 224.680 421.815 L 228.500 421.500 228.798 414.648 C 229.155 406.442, 227.494 403, 223.177 403 C 221.650 403, 219.860 403.540, 219.200 404.200 M 241.035 404.934 C 239.375 408.037, 239.740 418.597, 241.571 420.429 C 244.887 423.744, 251 421.564, 251 417.066 C 251 415.397, 247.284 415.818, 246.614 417.563 C 245.846 419.565, 244 418.465, 244 416.004 C 244 414.617, 244.849 414.045, 247.250 413.813 C 250.097 413.539, 250.538 413.103, 250.810 410.296 C 251.284 405.399, 249.538 403, 245.500 403 C 243.133 403, 241.750 403.599, 241.035 404.934 M 320.427 403.765 C 319.837 404.169, 319.057 405.305, 318.694 406.288 C 317.806 408.693, 320.910 409.912, 322.173 407.654 C 323.423 405.422, 325 405.560, 325 407.902 C 325 409.112, 323.920 410.181, 322.035 410.838 C 318.586 412.040, 317.171 415.886, 318.835 419.538 C 319.762 421.571, 320.602 421.915, 324.462 421.837 L 329 421.746 329 413.573 C 329 408.550, 328.538 404.938, 327.800 404.200 C 326.474 402.874, 322.105 402.617, 320.427 403.765 M 332 412.500 C 332 421.333, 332.140 422, 334 422 C 335.821 422, 336 421.333, 336 414.567 C 336 408.013, 336.236 407.060, 338 406.500 C 341.682 405.331, 340.349 403, 336 403 L 332 403 332 412.500 M 341.935 404.578 C 341.159 405.514, 340.625 408.741, 340.625 412.500 C 340.625 419.730, 341.925 422, 346.066 422 C 348.636 422, 352 419.039, 352 416.777 C 352 415.310, 348.720 416, 347.379 417.750 C 346.207 419.280, 345.912 419.311, 345.034 418 C 343.209 415.271, 343.952 414.125, 347.750 413.810 C 351.381 413.510, 351.496 413.382, 351.388 409.768 C 351.326 407.716, 350.708 405.353, 350.015 404.518 C 348.369 402.535, 343.601 402.571, 341.935 404.578 M 408.035 404.934 C 407.466 405.998, 407 409.403, 407 412.500 C 407 419.609, 408.228 422, 411.880 422 C 414.686 422, 418 419.385, 418 417.171 C 418 415.383, 414.885 415.777, 413.429 417.750 C 412.234 419.370, 412.068 419.314, 411.195 417 C 410.313 414.660, 410.485 414.468, 413.876 414 C 416.960 413.574, 417.548 413.081, 417.823 410.685 C 418.294 406.573, 415.593 403, 412.012 403 C 410.127 403, 408.698 403.695, 408.035 404.934 M 420.220 415.738 C 420.466 426.943, 420.710 428.516, 422.250 428.811 C 423.653 429.080, 424 428.438, 424 425.573 C 424 422.511, 424.329 422, 426.300 422 C 427.565 422, 429.140 421.460, 429.800 420.800 C 431.393 419.207, 431.393 405.793, 429.800 404.200 C 429.140 403.540, 426.652 403, 424.270 403 L 419.940 403 420.220 415.738 M 434.161 405.547 C 432.499 409.195, 432.720 417.156, 434.557 419.777 C 437.276 423.660, 444 422.252, 444 417.800 C 444 415.549, 441.412 415.441, 440.181 417.640 C 439.048 419.666, 437 418.572, 437 415.941 C 437 414.389, 437.702 414, 440.500 414 C 443.957 414, 444 413.948, 444 409.700 C 444 404.586, 442.689 403, 438.461 403 C 436.067 403, 435.045 403.605, 434.161 405.547 M 447.035 404.934 C 445.491 407.819, 445.771 409, 448 409 C 449.111 409, 450 408.333, 450 407.500 C 450 406.675, 450.675 406, 451.500 406 C 454.329 406, 453.086 409.601, 449.750 411.070 C 447.162 412.209, 446.435 413.176, 446.182 415.815 C 445.742 420.394, 447.415 422, 452.622 422 L 457 422 457 414.434 C 457 405.001, 456.037 403, 451.500 403 C 449.133 403, 447.750 403.599, 447.035 404.934 M 72.418 409.587 C 71.672 413.560, 72.913 418.663, 74.524 418.250 C 75.061 418.113, 75.500 415.450, 75.500 412.333 C 75.500 405.666, 73.489 403.875, 72.418 409.587 M 113.667 406.667 C 112.318 408.016, 113.055 410, 114.906 410 C 116.320 410, 116.678 409.483, 116.290 408 C 115.754 405.950, 114.845 405.488, 113.667 406.667 M 209 407.917 C 209 409.145, 209.646 410, 210.573 410 C 211.505 410, 212.015 409.320, 211.823 408.333 C 211.337 405.824, 209 405.480, 209 407.917 M 244.639 406.694 C 243.444 407.889, 243.994 410, 245.500 410 C 246.325 410, 247 409.352, 247 408.559 C 247 406.888, 245.573 405.761, 244.639 406.694 M 344.623 407.540 C 343.722 409.888, 343.788 410, 346.073 410 C 347.471 410, 348.041 409.457, 347.823 408.333 C 347.381 406.050, 345.385 405.555, 344.623 407.540 M 410.721 407.959 C 410.316 409.506, 410.666 410, 412.167 410 C 413.478 410, 414.037 409.437, 413.823 408.333 C 413.343 405.858, 411.334 405.616, 410.721 407.959 M 424.409 407.377 C 423.546 409.626, 424.416 418.500, 425.500 418.500 C 426.050 418.500, 426.634 415.688, 426.798 412.250 C 426.988 408.261, 426.705 406, 426.016 406 C 425.423 406, 424.699 406.620, 424.409 407.377 M 437.667 406.667 C 436.449 407.885, 436.978 410, 438.500 410 C 439.333 410, 440 409.111, 440 408 C 440 406.008, 438.934 405.399, 437.667 406.667 M 369.485 411.048 C 368.193 415.117, 373.806 417.956, 375.866 414.276 C 377.235 411.829, 375.447 409, 372.532 409 C 370.994 409, 369.902 409.734, 369.485 411.048 M 221.556 414.910 C 220.713 416.274, 222.081 419.139, 223.373 418.714 C 225.164 418.125, 225.387 414, 223.629 414 C 222.798 414, 221.865 414.409, 221.556 414.910 M 322.180 416.250 C 322.356 417.488, 322.950 418.500, 323.500 418.500 C 324.050 418.500, 324.644 417.488, 324.820 416.250 C 325.039 414.702, 324.628 414, 323.500 414 C 322.372 414, 321.961 414.702, 322.180 416.250 M 450 416.583 C 450 419.716, 452.348 419.373, 452.820 416.172 C 453.032 414.729, 452.612 414, 451.570 414 C 450.549 414, 450 414.903, 450 416.583" stroke="none" fill="#1b5c9c" fill-rule="evenodd"/><path d="M 242.750 74.716 C 238.863 75.305, 239.339 76.645, 243.750 77.527 L 247.500 78.277 244.211 79.177 C 242.171 79.735, 240.475 81.057, 239.747 82.656 C 238.697 84.961, 238.866 85.488, 241.342 87.618 C 246.408 91.976, 259.352 90.431, 260.636 85.316 C 261.377 82.363, 259.633 80.225, 255.624 79.170 L 252.500 78.347 256.250 77.096 C 258.313 76.408, 260 75.430, 260 74.922 C 260 74.024, 248.250 73.883, 242.750 74.716 M 265.166 76.039 C 263.883 76.566, 263.012 77.561, 263.232 78.249 C 264.235 81.386, 280.321 84.348, 283.936 82.061 C 288.616 79.099, 271.268 73.533, 265.166 76.039 M 222.083 79.069 C 216.855 80.925, 213 83.477, 213 85.084 C 213 85.509, 213.761 86.618, 214.692 87.549 C 216.021 88.878, 217.523 89.123, 221.710 88.691 C 230.861 87.746, 237.856 81.561, 233.431 78.326 C 231.049 76.584, 228.638 76.742, 222.083 79.069 M 290.861 82.033 C 293.168 83.955, 293.174 84, 291.111 84 C 288.120 84, 288.479 86.628, 291.750 88.674 C 293.262 89.621, 294.692 90.536, 294.927 90.708 C 295.162 90.880, 294.487 91.665, 293.427 92.452 C 290.847 94.368, 292.495 97.113, 296.914 98.257 C 299.456 98.916, 299.924 99.387, 299.064 100.423 C 297.420 102.404, 298.804 104.798, 302 105.500 C 304.911 106.139, 311.338 104.790, 314 102.981 C 315.300 102.098, 315.241 101.764, 313.559 100.481 C 312.491 99.666, 310.804 99, 309.809 99 C 307.589 99, 307.427 97.434, 309.563 96.614 C 311.466 95.884, 310.558 94.167, 307.648 92.993 C 305.934 92.302, 305.854 92.114, 307.250 92.063 C 311.550 91.908, 306.630 87.159, 297.878 83.019 C 290.432 79.496, 287.285 79.054, 290.861 82.033 M 267.750 85.024 C 266.788 85.616, 266 86.967, 266 88.027 C 266 92.444, 276.865 95.337, 283.324 92.638 C 287.487 90.898, 287.937 89.158, 284.927 86.434 C 282.503 84.240, 270.614 83.265, 267.750 85.024 M 225.333 89.122 C 220.942 90.359, 217 95.304, 217 99.577 C 217 111.315, 235.710 109.722, 237.642 97.818 C 238.661 91.541, 232.413 87.127, 225.333 89.122 M 247.694 93.026 C 242.199 97.348, 243.813 103.065, 251.081 105.022 C 258.542 107.031, 266 103.477, 266 97.913 C 266 91.805, 253.491 88.466, 247.694 93.026 M 199.401 93.905 C 192.186 97.182, 188.775 104.676, 192.829 108.345 C 195.286 110.569, 198.483 110.429, 203.782 107.863 C 210.689 104.520, 214.082 97.225, 210.429 93.571 C 208.355 91.498, 204.441 91.617, 199.401 93.905 M 314.241 93.523 C 314.649 93.959, 314.486 94.915, 313.879 95.646 C 313.044 96.652, 313.183 97.133, 314.445 97.617 C 315.396 97.982, 315.873 98.888, 315.553 99.722 C 315.206 100.626, 315.731 101.378, 316.927 101.691 C 318.078 101.992, 318.644 102.765, 318.324 103.599 C 317.950 104.571, 318.555 105, 320.299 105 C 322.320 105, 322.710 105.392, 322.290 107 C 321.895 108.508, 322.259 109, 323.767 109 C 324.966 109, 325.990 109.852, 326.324 111.130 C 326.679 112.487, 327.413 113.055, 328.349 112.696 C 329.291 112.335, 330.018 112.914, 330.380 114.317 C 331.005 116.738, 335.976 119.675, 336.032 117.656 C 336.049 117.020, 336.720 117.367, 337.521 118.427 C 338.323 119.487, 339.273 120.061, 339.631 119.702 C 341.246 118.087, 321.787 97.043, 315.793 93.923 C 314.532 93.266, 313.834 93.086, 314.241 93.523 M 274.110 96.890 C 272.949 98.051, 272 99.380, 272 99.845 C 272 101.556, 275.621 103.880, 280.001 104.981 C 285.752 106.426, 292.342 104.604, 292.794 101.444 C 293.299 97.915, 289.562 95.631, 282.553 95.184 C 277.123 94.839, 275.918 95.082, 274.110 96.890 M 180.649 107.186 C 172.140 116.739, 170.640 120.789, 176.788 117.610 C 180.386 115.749, 184.817 110.660, 186.652 106.282 C 189.719 98.962, 187.705 99.265, 180.649 107.186 M 233.313 107.102 C 227.388 108.817, 224.231 115.826, 227.030 121.055 C 229.468 125.611, 238.371 127.411, 244.020 124.490 C 251.456 120.644, 250.523 110.788, 242.401 107.394 C 238.648 105.826, 237.817 105.799, 233.313 107.102 M 260.500 107.155 C 255.329 109.983, 254.344 116.435, 258.455 120.545 C 260.393 122.484, 261.940 123, 265.809 123 C 272.125 123, 276 119.820, 276 114.637 C 276 108.074, 266.873 103.669, 260.500 107.155 M 286.048 108.798 C 282.358 112.488, 282.234 114.325, 285.455 117.545 C 288.493 120.584, 293.235 120.764, 297.750 118.011 C 300.389 116.402, 301 115.391, 301 112.637 C 301 108.409, 299.231 106.893, 293.547 106.252 C 289.586 105.806, 288.759 106.087, 286.048 108.798 M 308.342 108.382 C 305.905 110.479, 305.708 111.063, 306.701 113.244 C 308.824 117.902, 314.276 117.236, 318.291 111.828 C 321.093 108.052, 319.965 106, 315.087 106 C 312.340 106, 310.255 106.736, 308.342 108.382 M 201.672 111.601 C 198.439 114.834, 197.638 117.255, 198.420 121.427 C 200.288 131.385, 214.698 132.754, 218.628 123.348 C 221.596 116.244, 216.484 109, 208.502 109 C 205.280 109, 203.653 109.620, 201.672 111.601 M 317.589 115.077 C 314.772 118.425, 314.446 120.097, 316.035 123.066 C 317.268 125.370, 321.246 125.612, 323.347 123.510 C 325.221 121.636, 326.350 116.678, 325.507 114.022 C 324.533 110.954, 320.620 111.475, 317.589 115.077 M 181.299 115.960 C 177.191 118.464, 175 122.755, 175 128.295 C 175 133.669, 177.194 136, 182.252 136 C 184.912 136, 186.626 135.221, 188.845 133.001 C 194.347 127.499, 195.253 120.253, 190.975 115.975 C 188.477 113.477, 185.378 113.472, 181.299 115.960 M 327.635 118.250 C 323.065 125.539, 326.563 137.037, 331.767 131.833 C 332.657 130.943, 333.029 131.003, 333.331 132.083 C 334.992 138.022, 335.757 139.522, 337.275 139.815 C 338.359 140.023, 339.335 139.276, 339.878 137.824 C 340.712 135.592, 340.809 135.648, 342.322 139.250 C 344.048 143.358, 345.898 144.107, 346.704 141.025 C 347.204 139.110, 347.275 139.118, 349.024 141.275 C 352.536 145.606, 352.119 142.049, 348.115 133.504 C 345.883 128.742, 343.642 125.103, 343.134 125.417 C 342.625 125.732, 341.934 125.269, 341.596 124.391 C 341.258 123.510, 340.336 123.041, 339.543 123.345 C 338.676 123.678, 337.856 123.122, 337.484 121.949 C 336.652 119.328, 335.148 119.483, 334.558 122.250 C 334.294 123.487, 333.888 125.400, 333.655 126.500 C 333.410 127.660, 333.183 127.115, 333.116 125.200 C 333.010 122.187, 330.577 116, 329.497 116 C 329.249 116, 328.411 117.013, 327.635 118.250 M 298.612 119.876 C 297.678 120.908, 296.663 123.304, 296.355 125.201 C 295.913 127.924, 296.310 129.249, 298.239 131.492 C 305.158 139.535, 316.504 128.996, 309.927 120.635 C 307.346 117.353, 301.264 116.945, 298.612 119.876 M 277 123.331 C 272.341 124.887, 269.439 130.393, 271.047 134.623 C 272.659 138.863, 274.863 140.884, 278.654 141.595 C 288.540 143.450, 294.906 133.178, 288.250 126.112 C 284.923 122.580, 281.660 121.774, 277 123.331 M 166.547 128.233 C 164.202 131.575, 158.844 145.939, 159.529 147.046 C 160.481 148.587, 163.561 148.143, 165.307 146.213 C 168.044 143.189, 170 137.303, 170 132.091 C 170 126.341, 168.808 125.009, 166.547 128.233 M 243.522 129.278 C 239.408 133.392, 238.996 136.841, 242.026 141.810 C 246.241 148.724, 257.007 149.914, 262.250 144.046 C 266.182 139.646, 265.986 135.046, 261.665 130.331 C 258.751 127.152, 257.616 126.633, 252.687 126.224 C 247.299 125.777, 246.885 125.915, 243.522 129.278 M 217.190 130.967 C 210.422 135.213, 209.413 144.260, 215.077 149.923 C 223.306 158.152, 236.845 151.710, 235.664 140.128 C 234.749 131.154, 224.776 126.208, 217.190 130.967 M 312.455 131.455 C 310.685 133.224, 310 135.001, 310 137.820 C 310 149.113, 323.193 150.432, 324.688 139.288 C 325.186 135.575, 324.903 134.749, 322.202 132.048 C 318.514 128.360, 315.720 128.190, 312.455 131.455 M 192 135.706 C 187.059 137.512, 183.325 144.649, 184.506 150.027 C 186.138 157.458, 194.230 162.045, 199.552 158.558 C 202.939 156.339, 205.992 151.172, 205.996 147.651 C 206.007 139.647, 198.574 133.303, 192 135.706 M 291.775 140.559 C 288.237 142.479, 287 144.919, 287 149.980 C 287 159.287, 298.118 163.292, 304.585 156.314 C 306.284 154.480, 307 152.546, 307 149.788 C 307 144.828, 305.706 142.416, 302.020 140.510 C 298.388 138.632, 295.299 138.647, 291.775 140.559 M 328.229 139.669 C 326.299 140.446, 324 145.519, 324 149 C 324 158.433, 333.118 162.542, 336.549 154.655 L 337.922 151.500 337.961 154.782 C 338.011 159.024, 340.460 164.855, 342.522 165.647 C 344.528 166.417, 346.154 164.858, 347.674 160.706 C 348.666 157.997, 348.860 157.857, 348.924 159.800 C 349.032 163.071, 351.787 168, 353.507 168 C 355.513 168, 356.360 163.889, 355.516 158.237 C 354.070 148.544, 349.925 143.466, 348.405 149.524 L 347.771 152.049 346.135 148.774 C 344.098 144.695, 340.376 143.808, 339.155 147.110 C 338.369 149.235, 338.287 149.184, 337.692 146.212 C 336.617 140.836, 332.465 137.965, 328.229 139.669 M 167.589 146.077 C 165.468 148.597, 165.001 150.179, 165.004 154.827 C 165.011 165.904, 171.783 171.031, 177.705 164.445 C 182.010 159.658, 181.893 149.802, 177.479 145.388 C 174.183 142.092, 170.741 142.331, 167.589 146.077 M 264.304 147.956 C 259.703 150.761, 258.142 156.390, 260.555 161.474 C 262.833 166.275, 267.273 168.991, 272.850 168.996 C 276.497 168.999, 277.770 168.430, 280.728 165.472 C 283.889 162.311, 284.200 161.527, 283.718 157.934 C 283.007 152.631, 280.602 149.149, 276.454 147.416 C 271.819 145.480, 268.094 145.645, 264.304 147.956 M 235.763 152.565 C 230.293 155.533, 228.239 163.695, 231.417 169.839 C 233.433 173.737, 237.674 176, 242.965 176 C 246.198 176, 247.793 175.300, 250.765 172.577 C 254.234 169.397, 254.500 168.752, 254.500 163.500 C 254.500 158.248, 254.234 157.603, 250.765 154.423 C 247.706 151.620, 246.257 151.007, 242.765 151.040 C 240.419 151.062, 237.268 151.748, 235.763 152.565 M 312 154.279 C 304.170 158.191, 304.943 172.041, 313.151 174.903 C 323.248 178.423, 330.013 163.860, 322.003 155.850 C 318.928 152.774, 315.948 152.306, 312 154.279 M 156.334 157.679 C 155.926 159.231, 155.572 164.325, 155.547 169 C 155.504 176.849, 155.653 177.500, 157.500 177.500 C 160.124 177.500, 162.997 171.752, 162.997 166.500 C 162.997 162.268, 160.324 155.878, 158.287 155.239 C 157.620 155.029, 156.741 156.127, 156.334 157.679 M 208.415 158.409 C 201.322 161.525, 198.575 168.989, 201.820 176.327 C 205.462 184.559, 214.208 186.585, 220.643 180.688 C 223.673 177.912, 224.337 176.547, 224.750 172.252 C 225.137 168.221, 224.802 166.421, 223.178 163.814 C 219.678 158.196, 213.800 156.044, 208.415 158.409 M 181.252 166.536 C 175.702 170.423, 176.257 182.514, 182.214 187.527 C 186.296 190.961, 190.190 190.752, 193.411 186.923 C 201.598 177.194, 191.119 159.625, 181.252 166.536 M 286.388 166.532 C 279.565 170.005, 278.555 179.488, 284.385 185.319 C 288.410 189.343, 292.884 190.493, 297.312 188.642 C 301.559 186.867, 303.075 184.859, 303.703 180.178 C 305.035 170.245, 294.855 162.222, 286.388 166.532 M 163.611 174.532 C 159.774 178.369, 160.836 188.927, 165.531 193.622 C 170.398 198.489, 175 195.195, 175 186.843 C 175 181.288, 173.845 177.845, 171.040 175.040 C 168.615 172.615, 165.725 172.418, 163.611 174.532 M 155.622 189.206 C 156.638 196.869, 158.396 203.126, 159.517 203.069 C 160.058 203.041, 160.621 200.202, 160.769 196.759 C 160.978 191.909, 160.587 189.768, 159.034 187.250 C 156.041 182.398, 154.812 183.103, 155.622 189.206 M 199.357 187.980 C 193.850 190.232, 192.583 196.772, 196.250 204.030 C 199.820 211.096, 207.317 214.734, 213.455 212.379 C 215.493 211.597, 218.007 206.828, 217.978 203.800 C 217.891 194.681, 206.545 185.042, 199.357 187.980 M 178.025 195.975 C 173.488 200.512, 174.784 209.848, 180.669 215.014 C 184.428 218.315, 184.788 218.411, 188.337 217.062 C 195.226 214.443, 193.167 198.675, 185.478 195.172 C 181.877 193.531, 180.299 193.701, 178.025 195.975 M 163.035 203.934 C 159.345 210.829, 167.608 225.249, 172.466 220.391 C 173.310 219.548, 174 217.344, 174 215.494 C 174 206.442, 166.132 198.148, 163.035 203.934 M 178.185 220.694 C 174.349 222.199, 174.945 229.139, 179.317 233.856 C 185.640 240.680, 193.165 237.024, 189.673 228.823 C 187.338 223.341, 181.667 219.327, 178.185 220.694 M 168 225.548 C 168 226.802, 175.161 237.172, 175.673 236.660 C 176.591 235.743, 174.118 229.755, 171.806 227.293 C 169.779 225.135, 168 224.320, 168 225.548 M 238.347 303.057 C 229.166 307.602, 226.504 316.481, 227.209 340.212 C 227.548 351.649, 228.095 356.504, 229.379 359.486 C 232.904 367.673, 238.450 371.315, 247.500 371.385 C 255.122 371.444, 260.313 368.993, 263.839 363.672 C 266.346 359.889, 266.519 358.854, 266.826 345.828 L 267.151 332 257.076 332 L 247 332 247 338 L 247 344 250 344 C 252.884 344, 253 344.172, 253 348.453 C 253 355.233, 251.302 358.165, 247.590 357.800 C 242.494 357.298, 241.907 354.796, 242.222 334.901 C 242.519 316.118, 243.054 314, 247.500 314 C 250.159 314, 251.582 315.488, 252.528 319.256 C 253.196 321.916, 253.428 322, 260.108 322 L 267 322 267 318.968 C 267 315.413, 264.646 309.372, 262.212 306.680 C 257.039 300.960, 245.977 299.281, 238.347 303.057 M 362 328 L 362 355 367.500 355 L 373 355 373 344 L 373 333 377 333 L 381 333 381 344 L 381 355 387 355 L 393 355 393 328 L 393 301 387 301 L 381 301 381 311.500 L 381 322 377 322 L 373 322 373 311.500 L 373 301 367.500 301 L 362 301 362 328 M 400 323.050 C 400 347.395, 400.322 348.957, 406.196 353.140 C 410.587 356.266, 419.612 356.421, 423.612 353.438 C 430.393 348.381, 430.470 348.058, 430.803 323.430 L 431.106 301 425.073 301 L 419.039 301 418.770 322.750 L 418.500 344.500 416.056 344.845 C 411.464 345.493, 411 343.331, 411 321.309 L 411 301 405.500 301 L 400 301 400 323.050 M 438 327.916 L 438 355 448.750 354.996 C 457.768 354.993, 460.033 354.667, 462.810 352.974 C 469.279 349.030, 471.260 336.609, 466.530 329.640 C 465.172 327.638, 464.445 326, 464.916 326 C 466.987 326, 469.219 318.649, 468.774 313.293 C 468.406 308.852, 467.745 307.283, 465.146 304.681 C 461.975 301.508, 461.936 301.499, 449.984 301.166 L 438 300.833 438 327.916 M 449 316.500 C 449 321.857, 449.073 322, 451.800 322 C 455.474 322, 457 320.337, 457 316.335 C 457 312.870, 454.920 311, 451.066 311 C 449.228 311, 449 311.608, 449 316.500 M 285.016 318.024 C 279.785 319.254, 275.430 324.612, 273.978 331.604 C 272.482 338.812, 273.104 358.487, 274.938 362 C 279.909 371.516, 291.418 374.681, 300.646 369.069 C 303.887 367.098, 308 359.891, 308 356.184 C 308 354.150, 307.527 354, 301.108 354 C 294.591 354, 294.183 354.136, 293.589 356.500 C 292.915 359.188, 290.234 359.834, 288.200 357.800 C 287.540 357.140, 287 354.890, 287 352.800 L 287 349 297.500 349 L 308 349 308 341.682 C 308 327.999, 303.673 319.872, 295.362 317.944 C 290.882 316.904, 289.740 316.913, 285.016 318.024 M 324.771 318.160 C 319.104 319.723, 315.507 324.516, 313.998 332.512 C 312.457 340.676, 313.155 357.041, 315.257 362.073 C 318.373 369.531, 326.732 373.194, 335.921 371.129 C 341.111 369.963, 343.761 367.705, 346.048 362.500 C 349.798 353.962, 349.293 331.610, 345.190 324.585 C 341.845 318.858, 332.687 315.977, 324.771 318.160 M 288.200 331.200 C 287.540 331.860, 287 333.885, 287 335.700 C 287 338.805, 287.207 339, 290.500 339 C 293.793 339, 294 338.805, 294 335.700 C 294 332.379, 292.539 330, 290.500 330 C 289.895 330, 288.860 330.540, 288.200 331.200 M 328.002 332.496 C 326.487 336.479, 326.724 355.240, 328.316 357.418 C 330.090 359.843, 333.252 359.066, 334.106 355.995 C 335.005 352.767, 335.007 336.245, 334.109 333 C 333.109 329.382, 329.305 329.068, 328.002 332.496 M 449 338.500 C 449 344.402, 449.190 345, 451.066 345 C 455.298 345, 457 343.183, 457 338.665 C 457 333.691, 455.680 332, 451.800 332 C 449.021 332, 449 332.048, 449 338.500 M 360 368.009 L 360 373.017 414.250 372.759 L 468.500 372.500 468.805 367.750 L 469.110 363 414.555 363 L 360 363 360 368.009 M 269.250 407.662 C 267.547 408.350, 267.669 412.481, 269.436 413.947 C 271.309 415.501, 275 413.656, 275 411.165 C 275 407.983, 272.393 406.394, 269.250 407.662 M 160.200 409.200 C 158.267 411.133, 158.758 414.788, 161.048 415.515 C 165.265 416.854, 167.940 411.109, 164.066 409.035 C 161.655 407.745, 161.655 407.745, 160.200 409.200" stroke="none" fill="#fcb433" fill-rule="evenodd"/></svg>