<?xml version="1.0" encoding="UTF-8"?>
<svg xmlns="http://www.w3.org/2000/svg" width="261" height="48" viewBox="0 0 261 48" fill="none">
  <path d="M59.5581 29.0752H63.7998C64.9358 33.8869 68.2702 35.2517 72.7407 35.2517C76.3775 35.2517 78.6883 33.9256 78.6883 31.1224C78.6883 28.0904 75.8851 27.1444 73.8767 26.5395C71.9807 26.0084 69.7474 25.5935 67.1691 24.6436C63.6447 23.3563 61.109 21.6116 61.109 17.5211C61.109 11.1935 66.6767 8.99512 71.4534 8.99512C78.1222 8.99512 81.7203 13.0119 81.9103 18.6184H77.6686C77.2886 13.8067 73.8418 12.7444 71.0386 12.7444C69.2938 12.7444 65.3545 13.2368 65.3545 17.0248C65.3545 19.1069 66.4906 20.0956 68.8789 20.9641C70.6974 21.6077 71.7597 21.8365 74.1093 22.4025C76.4589 23.0074 82.6353 24.221 82.6353 30.6998C82.6353 36.4226 79.0722 38.9971 72.1785 38.9971C63.73 38.9971 60.0156 34.5266 59.562 29.0714L59.5581 29.0752Z" fill="#002966"></path>
  <path d="M84.4497 32.7897C84.4497 30.9713 85.1709 29.4165 86.6869 28.2805C88.3541 26.9932 91.0836 26.2721 96.8801 26.2721H97.9773V25.136C97.9773 22.7864 96.8801 21.2356 93.7705 21.2356C90.3974 21.2356 89.4125 22.9028 89.3389 24.3024H85.4384C85.5159 21.4604 87.218 17.936 93.8481 17.936C98.7722 17.936 101.994 19.9057 101.994 26.4969V38.3923H98.1673V35.589H98.1285C96.8025 37.7099 94.263 38.811 91.2697 38.811C86.1945 38.811 84.4497 35.6666 84.4497 32.7858V32.7897ZM98.0122 31.8049V28.9628H96.8374C92.2158 28.9628 88.389 29.6065 88.389 32.7509C88.389 34.5693 89.715 35.7053 92.2894 35.7053C96.155 35.7053 98.0122 33.2045 98.0122 31.8049Z" fill="#002966"></path>
  <path d="M105.701 32.9795V21.9527H103.088V18.882C105.36 18.882 105.891 17.8971 105.891 15.5476V13.3879H109.679V18.502H113.998V21.9488H109.679V32.0645C109.679 34.6041 110.552 35.3214 112.975 35.3214C113.355 35.3214 113.696 35.3214 114.262 35.2826V38.6558C113.39 38.7333 112.672 38.7682 111.874 38.7682C107.252 38.7682 105.697 36.7598 105.697 32.9718L105.701 32.9795Z" fill="#002966"></path>
  <path d="M115.402 28.3968C115.402 22.2591 118.887 17.9011 124.761 17.9011C130.027 17.9011 133.854 21.348 133.854 26.7683V29.7615L119.457 29.8003C119.799 33.3247 121.656 35.6355 124.951 35.6355C127.681 35.6355 129.422 33.9296 129.953 32.5299H133.854C133.512 35.3331 130.48 39.0087 124.913 39.0087C118.736 39.0087 115.402 34.4607 115.402 28.4006V28.3968ZM129.914 26.7683C129.914 23.0191 127.603 21.2743 124.761 21.2743C121.919 21.2743 119.496 23.0152 119.496 26.7683H129.914Z" fill="#002966"></path>
  <path d="M136.691 9.60376H140.669V38.396H136.691V9.60376Z" fill="#002966"></path>
  <path d="M144.497 9.60376H148.475V38.396H144.497V9.60376Z" fill="#002966"></path>
  <path d="M152.15 9.60376H156.469V13.733H152.15V9.60376ZM152.301 18.5059H156.279V38.396H152.301V18.5059Z" fill="#002966"></path>
  <path d="M178.252 18.5059V36.8801C178.252 45.2898 174.502 47.4881 169.121 47.4881C163.739 47.4881 160.595 45.441 159.61 40.6681H163.549C164.193 43.0914 166.279 44.115 168.966 44.115C172.944 44.115 174.27 41.8429 174.27 36.8025V35.5889C172.793 37.9385 170.482 38.997 167.713 38.997C162.068 38.997 158.846 34.4878 158.846 28.2377C158.846 22.5537 161.537 17.8933 167.523 17.8933C170.288 17.8933 172.715 18.8781 174.266 21.4565V18.502H178.244L178.252 18.5059ZM174.274 27.1831C174.274 23.5463 171.812 21.3091 168.438 21.3091C164.689 21.3091 162.603 24.0736 162.603 28.3579C162.603 32.6423 164.724 35.5928 168.512 35.5928C171.92 35.5928 174.27 33.282 174.27 29.2652V27.1831H174.274Z" fill="#002966"></path>
  <path d="M180.601 28.3968C180.601 22.2591 184.087 17.9011 189.961 17.9011C195.226 17.9011 199.053 21.348 199.053 26.7683V29.7615L184.657 29.8003C184.998 33.3247 186.855 35.6355 190.151 35.6355C192.88 35.6355 194.621 33.9296 195.152 32.5299H199.053C198.712 35.3331 195.68 39.0087 190.112 39.0087C183.935 39.0087 180.601 34.4607 180.601 28.4006V28.3968ZM195.114 26.7683C195.114 23.0191 192.803 21.2743 189.961 21.2743C187.119 21.2743 184.695 23.0152 184.695 26.7683H195.114Z" fill="#002966"></path>
  <path d="M201.891 18.506H205.869V21.4992C207.498 18.7696 210.188 17.9011 212.499 17.9011C217.008 17.9011 219.734 21.1968 219.734 25.9696V38.3961H215.756V27.1444C215.756 23.3951 214.166 21.2704 211.359 21.2704C208.366 21.2704 205.865 23.6588 205.865 27.7105V38.3961H201.887V18.506H201.891Z" fill="#002966"></path>
  <path d="M222.161 28.4317C222.161 22.2552 225.608 17.9011 231.633 17.9011C236.786 17.9011 240.31 21.0068 240.613 25.6284H236.674C236.181 22.674 234.436 21.2704 231.711 21.2704C228.074 21.2704 226.143 24.1124 226.143 28.4317C226.143 32.7509 228.039 35.6317 231.711 35.6317C234.44 35.6317 236.181 33.8869 236.712 31.7312H240.613C240.272 35.3292 237.24 39.0048 231.672 39.0048C225.496 39.0048 222.161 34.422 222.161 28.4355V28.4317Z" fill="#002966"></path>
  <path d="M242.315 28.3968C242.315 22.2591 245.801 17.9011 251.675 17.9011C256.94 17.9011 260.767 21.348 260.767 26.7683V29.7615L246.371 29.8003C246.712 33.3247 248.569 35.6355 251.865 35.6355C254.594 35.6355 256.335 33.9296 256.866 32.5299H260.767C260.425 35.3331 257.393 39.0087 251.826 39.0087C245.649 39.0087 242.315 34.4607 242.315 28.4006V28.3968ZM256.827 26.7683C256.827 23.0191 254.517 21.2743 251.675 21.2743C248.833 21.2743 246.409 23.0152 246.409 26.7683H256.827Z" fill="#002966"></path>
  <path d="M23.9884 31.1806C23.9922 31.2853 23.9961 31.3899 23.9961 31.4946C23.9961 35.6355 20.6384 38.9893 16.5015 38.9893C12.3645 38.9893 9.00678 35.6355 9.00678 31.4946C9.00678 27.3538 12.3645 24 16.5015 24C16.61 24 16.7186 24 16.8271 24.0077C15.6756 21.755 15.0242 19.2038 15.0242 16.4975C15.0242 16.0129 15.0475 15.5321 15.0863 15.0591C12.8956 15.2452 10.8252 15.8578 8.96414 16.8155C8.80129 20.7004 5.68788 23.8177 1.80678 23.9844C0.651373 26.2371 0 28.7922 0 31.4985C0 34.2048 0.651373 36.756 1.80678 39.0126C5.68788 39.1793 8.80129 42.3004 8.96414 46.1815C11.2246 47.3447 13.7835 48 16.4976 48C19.2116 48 21.7745 47.3447 24.0349 46.1815C24.1977 42.3004 27.3111 39.1793 31.1922 39.0126C32.1383 37.1631 32.747 35.1121 32.9331 32.9408C32.4678 32.9796 31.9948 33.0029 31.5179 33.0029C28.8039 33.0029 26.241 32.3476 23.9845 31.1844L23.9884 31.1806Z" fill="#A1DAF8"></path>
  <path d="M31.522 0C28.8196 0 26.2684 0.651373 24.0196 1.80291C23.8606 5.69951 20.7317 8.82456 16.8351 8.97964C15.6797 11.2362 15.0244 13.7913 15.0244 16.5015C15.0244 19.2116 15.6758 21.759 16.8273 24.0116C20.7123 24.1784 23.8257 27.2995 23.9885 31.1845C26.249 32.3477 28.8079 33.0029 31.522 33.0029C40.6335 33.0029 48.0234 25.6168 48.0234 16.5053C48.0234 7.39386 40.6335 0 31.522 0ZM31.522 23.9884C27.3811 23.9884 24.0273 20.6346 24.0273 16.4937C24.0273 12.3528 27.385 8.99903 31.522 8.99903C35.659 8.99903 39.0167 12.3567 39.0167 16.4937C39.0167 20.6307 35.659 23.9884 31.522 23.9884Z" fill="#FF4100"></path>
</svg>
