<svg xmlns="http://www.w3.org/2000/svg" width="1200" height="1424" viewBox="0 0 1200 1424" version="1.1"><path d="M 539.500 1.027 C 378.609 9.069, 135.264 37.277, 20.175 61.224 L -0.150 65.454 0.301 567.477 C 0.739 1056.103, 1.175 1126.558, 3.979 1162.371 C 4.938 1174.617, 5.209 1175.709, 9.548 1184.870 C 21.537 1210.179, 47.415 1241.055, 75.468 1263.520 C 109.007 1290.379, 201 1342.207, 201 1334.243 C 201 1333.434, 193.865 1323.943, 179.736 1305.957 C 169.117 1292.440, 164.100 1284.039, 157.832 1269.277 C 151.864 1255.225, 147.088 1239.551, 142.578 1219.215 C 138.290 1199.880, 136.384 1184.638, 134.984 1158.500 C 132.888 1119.350, 132.186 920.231, 133.048 609.500 C 133.526 437.350, 133.935 263.417, 133.958 222.983 L 134 149.466 155.750 142.275 C 181.989 133.600, 198.590 128.780, 244.500 116.509 C 364.454 84.447, 445.051 69.525, 534.500 62.815 C 556.607 61.157, 632.966 61.155, 655.500 62.813 C 732.416 68.470, 810.439 80.976, 897.500 101.603 C 947.970 113.560, 1041.279 139.778, 1056.259 146.210 C 1060.623 148.084, 1061.138 148.679, 1062.468 153.377 C 1065.018 162.385, 1065.965 182.905, 1067.065 253 C 1068.496 344.105, 1067.727 1075.104, 1066.164 1110 C 1063.001 1180.626, 1059.118 1202.807, 1046.769 1220.821 C 1041.943 1227.860, 1019.252 1250.728, 1008.812 1259.074 C 951.144 1305.176, 825.847 1366.734, 768 1377.384 C 734.229 1383.602, 691.960 1383.202, 679.082 1376.542 C 675.118 1374.493, 671.424 1368.850, 669.888 1362.500 C 668.282 1355.862, 668.298 1326.319, 669.912 1318 C 674.587 1293.904, 686.212 1272.131, 712.088 1239 C 739.625 1203.743, 745.411 1192.379, 750.480 1163.584 C 759.560 1112.009, 764.364 1033.620, 764.395 936.500 C 764.426 842.263, 761.580 799.562, 751.431 742 C 748.959 727.975, 741.537 683.875, 734.939 644 C 708.856 486.370, 707.309 478.242, 690.866 412.500 C 680.583 371.386, 652.688 266.165, 644.869 239 C 627.037 177.044, 605.704 126.879, 589.815 109.540 C 582.848 101.936, 579.110 100.043, 575.602 102.341 C 565.427 109.008, 540.913 168.234, 529.179 214.500 C 508.787 294.904, 499.593 390.312, 480.999 714.500 C 471.807 874.764, 465.499 978.833, 464.106 993.211 C 462.910 1005.558, 463.987 1010, 468.179 1010 C 469.495 1010, 470.718 1008.630, 472.010 1005.711 C 475.107 998.709, 482.736 943.225, 502.495 784 C 541.250 471.705, 559.756 331.288, 570.979 264.356 C 576.468 231.621, 579.012 222, 582.179 222 C 585.599 222, 590.039 243.019, 598.551 299.500 C 608.887 368.088, 616.911 411.379, 629.873 468.500 C 650.575 559.730, 663.111 670.376, 672.984 849 C 675.105 887.361, 684.173 1071.159, 686.004 1112.872 C 687.434 1145.458, 687.449 1184.807, 686.034 1193.500 C 684.192 1204.825, 670.708 1234.883, 660.240 1251 C 649.969 1266.814, 640.186 1277.693, 624 1291.299 C 614.126 1299.600, 607.523 1308.333, 606.098 1314.977 C 604.748 1321.273, 604.718 1343.019, 606.046 1352.500 C 606.586 1356.350, 607.455 1370.750, 607.978 1384.500 C 608.948 1409.983, 609.864 1418.267, 611.941 1420.337 C 613.880 1422.268, 677.591 1421.754, 699 1419.634 C 815.335 1408.114, 932.286 1372.059, 1047 1312.346 C 1126.971 1270.719, 1164.874 1239.021, 1186.769 1195.457 C 1193.020 1183.019, 1194.796 1175.859, 1196.509 1156.198 C 1199.818 1118.196, 1200.262 1049.689, 1200.420 553 C 1200.505 283.775, 1200.329 98.375, 1200.028 141 C 1199.727 183.625, 1199.371 203.200, 1199.236 184.500 C 1198.924 141.293, 1197.257 84.883, 1195.985 74.500 C 1195.352 69.337, 1194.453 66.092, 1193.448 65.350 C 1188.516 61.707, 1038.068 37.751, 950 26.587 C 869.735 16.411, 773.162 7.680, 682.500 2.403 C 651.337 0.588, 564.906 -0.243, 539.500 1.027 M 0.496 524.500 C 0.496 777.500, 0.610 880.851, 0.750 754.168 C 0.890 627.486, 0.890 420.486, 0.750 294.168 C 0.610 167.851, 0.496 271.500, 0.496 524.500" stroke="none" fill="#040404" fill-rule="evenodd"/><path d="M 558 61.592 C 554.975 61.792, 544.625 62.434, 535 63.017 C 453.809 67.936, 365.143 84.263, 244.500 116.509 C 198.590 128.780, 181.989 133.600, 155.750 142.275 L 134 149.466 133.958 222.983 C 133.935 263.417, 133.526 437.350, 133.048 609.500 C 132.186 920.231, 132.888 1119.350, 134.984 1158.500 C 136.384 1184.638, 138.290 1199.880, 142.578 1219.215 C 149.085 1248.553, 157.416 1271.859, 167.355 1288.533 C 169.967 1292.915, 177.301 1303.025, 183.652 1311 C 198.828 1330.056, 201.720 1334.260, 200.040 1334.820 C 198.175 1335.442, 216.850 1343.221, 234 1348.967 C 241.975 1351.640, 259.525 1356.772, 273 1360.372 C 286.475 1363.973, 312.350 1371.247, 330.500 1376.536 C 402.856 1397.624, 440.313 1405.546, 507.500 1413.972 C 545.999 1418.800, 560.948 1420.058, 587.364 1420.694 C 612.090 1421.290, 612.221 1421.282, 611.146 1419.272 C 609.624 1416.429, 608.004 1397.800, 607.991 1383 C 607.985 1376.125, 607.318 1364.650, 606.510 1357.500 C 604.761 1342.043, 604.568 1322.111, 606.098 1314.977 C 607.523 1308.333, 614.126 1299.600, 624 1291.299 C 640.186 1277.693, 649.969 1266.814, 660.240 1251 C 670.708 1234.883, 684.192 1204.825, 686.034 1193.500 C 687.449 1184.807, 687.434 1145.458, 686.004 1112.872 C 684.173 1071.159, 675.105 887.361, 672.984 849 C 663.111 670.376, 650.575 559.730, 629.873 468.500 C 616.911 411.379, 608.887 368.088, 598.551 299.500 C 586.807 221.571, 582.903 209.421, 577.009 232.464 C 568.470 265.852, 547.923 417.939, 502.495 784 C 482.736 943.225, 475.107 998.709, 472.010 1005.711 C 470.718 1008.630, 469.495 1010, 468.179 1010 C 463.987 1010, 462.910 1005.558, 464.106 993.211 C 465.499 978.833, 471.807 874.764, 480.999 714.500 C 499.593 390.312, 508.787 294.904, 529.179 214.500 C 540.913 168.234, 565.427 109.008, 575.602 102.341 C 579.110 100.043, 582.848 101.936, 589.815 109.540 C 605.704 126.879, 627.037 177.044, 644.869 239 C 652.688 266.165, 680.583 371.386, 690.866 412.500 C 707.309 478.242, 708.856 486.370, 734.939 644 C 741.537 683.875, 748.959 727.975, 751.431 742 C 761.580 799.562, 764.426 842.263, 764.395 936.500 C 764.364 1033.620, 759.560 1112.009, 750.480 1163.584 C 745.411 1192.379, 739.625 1203.743, 712.088 1239 C 686.212 1272.131, 674.587 1293.904, 669.912 1318 C 668.298 1326.319, 668.282 1355.862, 669.888 1362.500 C 671.424 1368.850, 675.118 1374.493, 679.082 1376.542 C 691.960 1383.202, 734.229 1383.602, 768 1377.384 C 825.847 1366.734, 951.144 1305.176, 1008.812 1259.074 C 1019.252 1250.728, 1041.943 1227.860, 1046.769 1220.821 C 1059.118 1202.807, 1063.001 1180.626, 1066.164 1110 C 1067.727 1075.104, 1068.496 344.105, 1067.065 253 C 1065.965 182.905, 1065.018 162.385, 1062.468 153.377 C 1061.138 148.679, 1060.623 148.084, 1056.259 146.210 C 1041.279 139.778, 947.970 113.560, 897.500 101.603 C 811.316 81.184, 732.760 68.537, 657.500 62.965 C 643.565 61.933, 568.480 60.897, 558 61.592" stroke="none" fill="#fbf31b" fill-rule="evenodd"/></svg>